<svg xmlns="http://www.w3.org/2000/svg" viewBox="0 0 800 500" width="800" height="500">
  <defs>
    <linearGradient id="dblockBg" x1="0%" y1="0%" x2="100%" y2="100%">
      <stop offset="0%" style="stop-color:#1a1a2e;stop-opacity:1" />
      <stop offset="100%" style="stop-color:#16213e;stop-opacity:1" />
    </linearGradient>
    <linearGradient id="dblockAccent" x1="0%" y1="0%" x2="100%" y2="0%">
      <stop offset="0%" style="stop-color:#8B5CF6;stop-opacity:1" />
      <stop offset="100%" style="stop-color:#3B82F6;stop-opacity:1" />
    </linearGradient>
  </defs>
  
  <!-- Background -->
  <rect width="800" height="500" fill="url(#dblockBg)" rx="8"/>
  
  <!-- Window chrome -->
  <rect x="0" y="0" width="800" height="40" fill="#0f0f23" rx="8"/>
  <rect x="0" y="30" width="800" height="20" fill="#0f0f23"/>
  <circle cx="20" cy="20" r="6" fill="#ff5f56"/>
  <circle cx="45" cy="20" r="6" fill="#ffbd2e"/>
  <circle cx="70" cy="20" r="6" fill="#27ca40"/>
  
  <!-- Sidebar -->
  <rect x="0" y="40" width="200" height="460" fill="#0f0f23"/>
  <text x="20" y="80" font-family="Arial, sans-serif" font-size="14" font-weight="bold" fill="#3B82F6">DBLOCK</text>
  <text x="20" y="100" font-family="Arial, sans-serif" font-size="10" fill="#6B7280">Data Workflow Automation</text>
  
  <!-- Coming Soon Badge -->
  <rect x="20" y="110" width="80" height="20" rx="10" fill="#8B5CF6"/>
  <text x="60" y="124" text-anchor="middle" font-family="Arial, sans-serif" font-size="10" font-weight="bold" fill="#FFFFFF">Coming Soon</text>
  
  <!-- Sidebar menu items -->
  <rect x="10" y="150" width="180" height="30" rx="4" fill="#3B82F6" opacity="0.2"/>
  <text x="20" y="170" font-family="Arial, sans-serif" font-size="12" fill="#FFFFFF">🎨 Visual Editor</text>
  <text x="20" y="205" font-family="Arial, sans-serif" font-size="12" fill="#6B7280">🔄 Pipelines</text>
  <text x="20" y="235" font-family="Arial, sans-serif" font-size="12" fill="#6B7280">🔌 Connectors</text>
  <text x="20" y="265" font-family="Arial, sans-serif" font-size="12" fill="#6B7280">🤖 AI Assistant</text>
  <text x="20" y="295" font-family="Arial, sans-serif" font-size="12" fill="#6B7280">📊 Monitoring</text>
  
  <!-- Main content area -->
  <rect x="210" y="50" width="580" height="440" fill="#1a1a2e" rx="4"/>
  
  <!-- Header -->
  <text x="230" y="85" font-family="Arial, sans-serif" font-size="20" font-weight="bold" fill="#FFFFFF">Visual Pipeline Editor</text>
  
  <!-- Stats cards -->
  <rect x="230" y="110" width="130" height="80" rx="6" fill="#0f0f23"/>
  <text x="250" y="140" font-family="Arial, sans-serif" font-size="10" fill="#6B7280">Connectors</text>
  <text x="250" y="170" font-family="Arial, sans-serif" font-size="28" font-weight="bold" fill="#3B82F6">100+</text>
  
  <rect x="375" y="110" width="130" height="80" rx="6" fill="#0f0f23"/>
  <text x="395" y="140" font-family="Arial, sans-serif" font-size="10" fill="#6B7280">Real-Time</text>
  <text x="395" y="170" font-family="Arial, sans-serif" font-size="28" font-weight="bold" fill="#8B5CF6">Stream</text>
  
  <rect x="520" y="110" width="130" height="80" rx="6" fill="#0f0f23"/>
  <text x="540" y="140" font-family="Arial, sans-serif" font-size="10" fill="#6B7280">AI Powered</text>
  <text x="540" y="170" font-family="Arial, sans-serif" font-size="28" font-weight="bold" fill="#27ca40">✓</text>
  
  <rect x="665" y="110" width="110" height="80" rx="6" fill="#0f0f23"/>
  <text x="680" y="140" font-family="Arial, sans-serif" font-size="10" fill="#6B7280">No-Code</text>
  <text x="680" y="170" font-family="Arial, sans-serif" font-size="28" font-weight="bold" fill="#FFFFFF">Visual</text>
  
  <!-- Pipeline visualization placeholder -->
  <rect x="230" y="210" width="545" height="200" rx="6" fill="#0f0f23"/>
  <text x="430" y="250" text-anchor="middle" font-family="Arial, sans-serif" font-size="14" fill="#6B7280">Data Pipeline Canvas</text>
  
  <!-- Pipeline nodes -->
  <rect x="260" y="280" width="80" height="50" rx="4" fill="#3B82F6" opacity="0.3"/>
  <text x="300" y="310" text-anchor="middle" font-family="Arial, sans-serif" font-size="10" fill="#FFFFFF">Source</text>
  
  <line x1="340" y1="305" x2="380" y2="305" stroke="#3B82F6" stroke-width="2"/>
  <polygon points="380,300 390,305 380,310" fill="#3B82F6"/>
  
  <rect x="390" y="280" width="80" height="50" rx="4" fill="#8B5CF6" opacity="0.3"/>
  <text x="430" y="310" text-anchor="middle" font-family="Arial, sans-serif" font-size="10" fill="#FFFFFF">Transform</text>
  
  <line x1="470" y1="305" x2="510" y2="305" stroke="#8B5CF6" stroke-width="2"/>
  <polygon points="510,300 520,305 510,310" fill="#8B5CF6"/>
  
  <rect x="520" y="280" width="80" height="50" rx="4" fill="#8B5CF6" opacity="0.3"/>
  <text x="560" y="310" text-anchor="middle" font-family="Arial, sans-serif" font-size="10" fill="#FFFFFF">Enrich</text>
  
  <line x1="600" y1="305" x2="640" y2="305" stroke="#8B5CF6" stroke-width="2"/>
  <polygon points="640,300 650,305 640,310" fill="#8B5CF6"/>
  
  <rect x="650" y="280" width="80" height="50" rx="4" fill="#27ca40" opacity="0.3"/>
  <text x="690" y="310" text-anchor="middle" font-family="Arial, sans-serif" font-size="10" fill="#FFFFFF">Sink</text>
  
  <!-- Placeholder text -->
  <text x="502" y="380" text-anchor="middle" font-family="Arial, sans-serif" font-size="12" fill="#4B5563">
    [Product Screenshot Placeholder]
  </text>
  
  <!-- Footer status bar -->
  <rect x="230" y="430" width="545" height="40" rx="4" fill="#0f0f23"/>
  <circle cx="250" cy="450" r="5" fill="#ffbd2e"/>
  <text x="265" y="455" font-family="Arial, sans-serif" font-size="11" fill="#6B7280">Preview Mode • Full release coming soon</text>
</svg>