<svg xmlns="http://www.w3.org/2000/svg" viewBox="0 0 900 550" width="900" height="550">
  <defs>
    <linearGradient id="techBg" x1="0%" y1="0%" x2="100%" y2="100%">
      <stop offset="0%" style="stop-color:#1a1a2e;stop-opacity:1" />
      <stop offset="100%" style="stop-color:#0f0f23;stop-opacity:1" />
    </linearGradient>
  </defs>
  <rect width="900" height="550" fill="url(#techBg)"/>
  <text x="450" y="40" text-anchor="middle" font-family="Arial, sans-serif" font-size="24" font-weight="bold" fill="#FFFFFF">Technology Stack</text>
  <text x="450" y="65" text-anchor="middle" font-family="Arial, sans-serif" font-size="12" fill="#6B7280">[Tech Stack Diagram Placeholder]</text>
  
  <!-- Data Platforms Section -->
  <rect x="30" y="90" width="260" height="200" rx="8" fill="#0f0f23" stroke="#8B5CF6" stroke-width="2"/>
  <text x="160" y="120" text-anchor="middle" font-family="Arial, sans-serif" font-size="16" font-weight="bold" fill="#8B5CF6">📊 Data Platforms</text>
  <rect x="50" y="140" width="100" height="40" rx="4" fill="#8B5CF6" opacity="0.3"/>
  <text x="100" y="165" text-anchor="middle" font-family="Arial, sans-serif" font-size="11" fill="#FFFFFF">Databricks</text>
  <rect x="170" y="140" width="100" height="40" rx="4" fill="#8B5CF6" opacity="0.3"/>
  <text x="220" y="165" text-anchor="middle" font-family="Arial, sans-serif" font-size="11" fill="#FFFFFF">Snowflake</text>
  <rect x="50" y="195" width="100" height="40" rx="4" fill="#8B5CF6" opacity="0.3"/>
  <text x="100" y="220" text-anchor="middle" font-family="Arial, sans-serif" font-size="11" fill="#FFFFFF">Apache Spark</text>
  <rect x="170" y="195" width="100" height="40" rx="4" fill="#8B5CF6" opacity="0.3"/>
  <text x="220" y="220" text-anchor="middle" font-family="Arial, sans-serif" font-size="11" fill="#FFFFFF">Delta Lake</text>
  <rect x="110" y="250" width="100" height="30" rx="4" fill="#8B5CF6" opacity="0.2"/>
  <text x="160" y="270" text-anchor="middle" font-family="Arial, sans-serif" font-size="10" fill="#FFFFFF">dbt</text>
  
  <!-- Streaming Section -->
  <rect x="320" y="90" width="260" height="200" rx="8" fill="#0f0f23" stroke="#3B82F6" stroke-width="2"/>
  <text x="450" y="120" text-anchor="middle" font-family="Arial, sans-serif" font-size="16" font-weight="bold" fill="#3B82F6">⚡ Streaming</text>
  <rect x="340" y="140" width="100" height="40" rx="4" fill="#3B82F6" opacity="0.3"/>
  <text x="390" y="165" text-anchor="middle" font-family="Arial, sans-serif" font-size="11" fill="#FFFFFF">Apache Kafka</text>
  <rect x="460" y="140" width="100" height="40" rx="4" fill="#3B82F6" opacity="0.3"/>
  <text x="510" y="165" text-anchor="middle" font-family="Arial, sans-serif" font-size="11" fill="#FFFFFF">Apache Flink</text>
  <rect x="340" y="195" width="100" height="40" rx="4" fill="#3B82F6" opacity="0.3"/>
  <text x="390" y="220" text-anchor="middle" font-family="Arial, sans-serif" font-size="11" fill="#FFFFFF">Kinesis</text>
  <rect x="460" y="195" width="100" height="40" rx="4" fill="#3B82F6" opacity="0.3"/>
  <text x="510" y="220" text-anchor="middle" font-family="Arial, sans-serif" font-size="11" fill="#FFFFFF">Pulsar</text>
  <rect x="400" y="250" width="100" height="30" rx="4" fill="#3B82F6" opacity="0.2"/>
  <text x="450" y="270" text-anchor="middle" font-family="Arial, sans-serif" font-size="10" fill="#FFFFFF">Spark Streaming</text>
  
  <!-- AI/ML Section -->
  <rect x="610" y="90" width="260" height="200" rx="8" fill="#0f0f23" stroke="#8B5CF6" stroke-width="2"/>
  <text x="740" y="120" text-anchor="middle" font-family="Arial, sans-serif" font-size="16" font-weight="bold" fill="#8B5CF6">🤖 AI/ML</text>
  <rect x="630" y="140" width="100" height="40" rx="4" fill="#8B5CF6" opacity="0.3"/>
  <text x="680" y="165" text-anchor="middle" font-family="Arial, sans-serif" font-size="11" fill="#FFFFFF">LangChain</text>
  <rect x="750" y="140" width="100" height="40" rx="4" fill="#8B5CF6" opacity="0.3"/>
  <text x="800" y="165" text-anchor="middle" font-family="Arial, sans-serif" font-size="11" fill="#FFFFFF">OpenAI</text>
  <rect x="630" y="195" width="100" height="40" rx="4" fill="#8B5CF6" opacity="0.3"/>
  <text x="680" y="220" text-anchor="middle" font-family="Arial, sans-serif" font-size="11" fill="#FFFFFF">PyTorch</text>
  <rect x="750" y="195" width="100" height="40" rx="4" fill="#8B5CF6" opacity="0.3"/>
  <text x="800" y="220" text-anchor="middle" font-family="Arial, sans-serif" font-size="11" fill="#FFFFFF">MLflow</text>
  <rect x="690" y="250" width="100" height="30" rx="4" fill="#8B5CF6" opacity="0.2"/>
  <text x="740" y="270" text-anchor="middle" font-family="Arial, sans-serif" font-size="10" fill="#FFFFFF">Hugging Face</text>
  
  <!-- Cloud Platforms Section -->
  <rect x="30" y="320" width="410" height="120" rx="8" fill="#0f0f23" stroke="#3B82F6" stroke-width="2"/>
  <text x="235" y="350" text-anchor="middle" font-family="Arial, sans-serif" font-size="16" font-weight="bold" fill="#3B82F6">☁️ Cloud Platforms</text>
  <rect x="50" y="370" width="110" height="50" rx="4" fill="#FF9900" opacity="0.3"/>
  <text x="105" y="400" text-anchor="middle" font-family="Arial, sans-serif" font-size="12" fill="#FFFFFF">AWS</text>
  <rect x="180" y="370" width="110" height="50" rx="4" fill="#4285F4" opacity="0.3"/>
  <text x="235" y="400" text-anchor="middle" font-family="Arial, sans-serif" font-size="12" fill="#FFFFFF">Google Cloud</text>
  <rect x="310" y="370" width="110" height="50" rx="4" fill="#0078D4" opacity="0.3"/>
  <text x="365" y="400" text-anchor="middle" font-family="Arial, sans-serif" font-size="12" fill="#FFFFFF">Azure</text>
  
  <!-- Languages & Tools Section -->
  <rect x="460" y="320" width="410" height="120" rx="8" fill="#0f0f23" stroke="#8B5CF6" stroke-width="2"/>
  <text x="665" y="350" text-anchor="middle" font-family="Arial, sans-serif" font-size="16" font-weight="bold" fill="#8B5CF6">🛠️ Languages &amp; Tools</text>
  <rect x="480" y="370" width="80" height="50" rx="4" fill="#3776AB" opacity="0.3"/>
  <text x="520" y="400" text-anchor="middle" font-family="Arial, sans-serif" font-size="11" fill="#FFFFFF">Python</text>
  <rect x="575" y="370" width="80" height="50" rx="4" fill="#F7DF1E" opacity="0.3"/>
  <text x="615" y="400" text-anchor="middle" font-family="Arial, sans-serif" font-size="11" fill="#1a1a2e">TypeScript</text>
  <rect x="670" y="370" width="80" height="50" rx="4" fill="#E34F26" opacity="0.3"/>
  <text x="710" y="400" text-anchor="middle" font-family="Arial, sans-serif" font-size="11" fill="#FFFFFF">Scala</text>
  <rect x="765" y="370" width="80" height="50" rx="4" fill="#00ADD8" opacity="0.3"/>
  <text x="805" y="400" text-anchor="middle" font-family="Arial, sans-serif" font-size="11" fill="#FFFFFF">Go</text>
  
  <!-- Footer -->
  <text x="450" y="490" text-anchor="middle" font-family="Arial, sans-serif" font-size="14" fill="#8B5CF6">DigiTransLab Technology Expertise</text>
  <text x="450" y="515" text-anchor="middle" font-family="Arial, sans-serif" font-size="11" fill="#6B7280">Enterprise-grade solutions across the modern data stack</text>
</svg>