<svg xmlns="http://www.w3.org/2000/svg" viewBox="0 0 900 600" width="900" height="600">
  <defs>
    <linearGradient id="dpaBg" x1="0%" y1="0%" x2="100%" y2="100%">
      <stop offset="0%" style="stop-color:#1a1a2e;stop-opacity:1" />
      <stop offset="100%" style="stop-color:#0f0f23;stop-opacity:1" />
    </linearGradient>
    <linearGradient id="dpaPurple" x1="0%" y1="0%" x2="100%" y2="0%">
      <stop offset="0%" style="stop-color:#8B5CF6;stop-opacity:1" />
      <stop offset="100%" style="stop-color:#7C3AED;stop-opacity:1" />
    </linearGradient>
    <linearGradient id="dpaBlue" x1="0%" y1="0%" x2="100%" y2="0%">
      <stop offset="0%" style="stop-color:#3B82F6;stop-opacity:1" />
      <stop offset="100%" style="stop-color:#2563EB;stop-opacity:1" />
    </linearGradient>
  </defs>
  
  <!-- Background -->
  <rect width="900" height="600" fill="url(#dpaBg)"/>
  
  <!-- Title -->
  <text x="450" y="35" text-anchor="middle" font-family="Arial, sans-serif" font-size="22" font-weight="bold" fill="#FFFFFF">Data Platform Architecture</text>
  <text x="450" y="55" text-anchor="middle" font-family="Arial, sans-serif" font-size="11" fill="#6B7280">DigiTransLab Enterprise Data Platform</text>
  
  <!-- Ingestion Layer -->
  <rect x="30" y="80" width="180" height="480" rx="8" fill="#0f0f23" stroke="#8B5CF6" stroke-width="2"/>
  <text x="120" y="110" text-anchor="middle" font-family="Arial, sans-serif" font-size="14" font-weight="bold" fill="#8B5CF6">Ingestion</text>
  <rect x="45" y="130" width="150" height="35" rx="4" fill="#8B5CF6" opacity="0.3"/>
  <text x="120" y="152" text-anchor="middle" font-family="Arial, sans-serif" font-size="10" fill="#FFFFFF">Batch Connectors</text>
  <rect x="45" y="175" width="150" height="35" rx="4" fill="#8B5CF6" opacity="0.3"/>
  <text x="120" y="197" text-anchor="middle" font-family="Arial, sans-serif" font-size="10" fill="#FFFFFF">Stream Connectors</text>
  <rect x="45" y="220" width="150" height="35" rx="4" fill="#8B5CF6" opacity="0.3"/>
  <text x="120" y="242" text-anchor="middle" font-family="Arial, sans-serif" font-size="10" fill="#FFFFFF">API Integrations</text>
  <rect x="45" y="265" width="150" height="35" rx="4" fill="#8B5CF6" opacity="0.3"/>
  <text x="120" y="287" text-anchor="middle" font-family="Arial, sans-serif" font-size="10" fill="#FFFFFF">File Uploads</text>
  <rect x="45" y="310" width="150" height="35" rx="4" fill="#8B5CF6" opacity="0.3"/>
  <text x="120" y="332" text-anchor="middle" font-family="Arial, sans-serif" font-size="10" fill="#FFFFFF">CDC Pipelines</text>
  
  <!-- Arrow -->
  <line x1="215" y1="320" x2="245" y2="320" stroke="#8B5CF6" stroke-width="2"/>
  <polygon points="245,315 260,320 245,325" fill="#8B5CF6"/>
  
  <!-- Processing Layer -->
  <rect x="265" y="80" width="200" height="480" rx="8" fill="#0f0f23" stroke="#3B82F6" stroke-width="2"/>
  <text x="365" y="110" text-anchor="middle" font-family="Arial, sans-serif" font-size="14" font-weight="bold" fill="#3B82F6">Processing</text>
  <rect x="280" y="130" width="170" height="50" rx="4" fill="#3B82F6" opacity="0.3"/>
  <text x="365" y="150" text-anchor="middle" font-family="Arial, sans-serif" font-size="10" fill="#FFFFFF">Apache Spark</text>
  <text x="365" y="165" text-anchor="middle" font-family="Arial, sans-serif" font-size="8" fill="#6B7280">Batch Processing</text>
  <rect x="280" y="190" width="170" height="50" rx="4" fill="#3B82F6" opacity="0.3"/>
  <text x="365" y="210" text-anchor="middle" font-family="Arial, sans-serif" font-size="10" fill="#FFFFFF">Apache Flink</text>
  <text x="365" y="225" text-anchor="middle" font-family="Arial, sans-serif" font-size="8" fill="#6B7280">Stream Processing</text>
  <rect x="280" y="250" width="170" height="50" rx="4" fill="#3B82F6" opacity="0.3"/>
  <text x="365" y="270" text-anchor="middle" font-family="Arial, sans-serif" font-size="10" fill="#FFFFFF">dbt</text>
  <text x="365" y="285" text-anchor="middle" font-family="Arial, sans-serif" font-size="8" fill="#6B7280">Transformations</text>
  <rect x="280" y="310" width="170" height="50" rx="4" fill="#3B82F6" opacity="0.3"/>
  <text x="365" y="330" text-anchor="middle" font-family="Arial, sans-serif" font-size="10" fill="#FFFFFF">Python/Scala</text>
  <text x="365" y="345" text-anchor="middle" font-family="Arial, sans-serif" font-size="8" fill="#6B7280">Custom Logic</text>
  
  <!-- Arrow -->
  <line x1="470" y1="320" x2="500" y2="320" stroke="#3B82F6" stroke-width="2"/>
  <polygon points="500,315 515,320 500,325" fill="#3B82F6"/>
  
  <!-- Storage Layer -->
  <rect x="520" y="80" width="180" height="480" rx="8" fill="#0f0f23" stroke="#8B5CF6" stroke-width="2"/>
  <text x="610" y="110" text-anchor="middle" font-family="Arial, sans-serif" font-size="14" font-weight="bold" fill="#8B5CF6">Storage</text>
  <rect x="535" y="130" width="150" height="45" rx="4" fill="#8B5CF6" opacity="0.3"/>
  <text x="610" y="157" text-anchor="middle" font-family="Arial, sans-serif" font-size="10" fill="#FFFFFF">Delta Lake</text>
  <rect x="535" y="185" width="150" height="45" rx="4" fill="#8B5CF6" opacity="0.3"/>
  <text x="610" y="212" text-anchor="middle" font-family="Arial, sans-serif" font-size="10" fill="#FFFFFF">Snowflake</text>
  <rect x="535" y="240" width="150" height="45" rx="4" fill="#8B5CF6" opacity="0.3"/>
  <text x="610" y="267" text-anchor="middle" font-family="Arial, sans-serif" font-size="10" fill="#FFFFFF">S3 / ADLS / GCS</text>
  <rect x="535" y="295" width="150" height="45" rx="4" fill="#8B5CF6" opacity="0.3"/>
  <text x="610" y="322" text-anchor="middle" font-family="Arial, sans-serif" font-size="10" fill="#FFFFFF">PostgreSQL</text>
  
  <!-- Arrow -->
  <line x1="705" y1="320" x2="735" y2="320" stroke="#8B5CF6" stroke-width="2"/>
  <polygon points="735,315 750,320 735,325" fill="#8B5CF6"/>
  
  <!-- Serving Layer -->
  <rect x="755" y="80" width="120" height="480" rx="8" fill="#0f0f23" stroke="#3B82F6" stroke-width="2"/>
  <text x="815" y="110" text-anchor="middle" font-family="Arial, sans-serif" font-size="14" font-weight="bold" fill="#3B82F6">Serving</text>
  <rect x="765" y="130" width="100" height="40" rx="4" fill="#3B82F6" opacity="0.3"/>
  <text x="815" y="155" text-anchor="middle" font-family="Arial, sans-serif" font-size="10" fill="#FFFFFF">BI Tools</text>
  <rect x="765" y="180" width="100" height="40" rx="4" fill="#3B82F6" opacity="0.3"/>
  <text x="815" y="205" text-anchor="middle" font-family="Arial, sans-serif" font-size="10" fill="#FFFFFF">APIs</text>
  <rect x="765" y="230" width="100" height="40" rx="4" fill="#3B82F6" opacity="0.3"/>
  <text x="815" y="255" text-anchor="middle" font-family="Arial, sans-serif" font-size="10" fill="#FFFFFF">ML Models</text>
  <rect x="765" y="280" width="100" height="40" rx="4" fill="#3B82F6" opacity="0.3"/>
  <text x="815" y="305" text-anchor="middle" font-family="Arial, sans-serif" font-size="10" fill="#FFFFFF">Apps</text>
  
  <!-- Governance Bar -->
  <rect x="30" y="400" width="845" height="70" rx="8" fill="#0f0f23" stroke="#8B5CF6" stroke-width="2" stroke-dasharray="5,5"/>
  <text x="450" y="425" text-anchor="middle" font-family="Arial, sans-serif" font-size="12" font-weight="bold" fill="#8B5CF6">🔒 Data Governance &amp; Security</text>
  <text x="150" y="450" text-anchor="middle" font-family="Arial, sans-serif" font-size="10" fill="#6B7280">Unity Catalog</text>
  <text x="350" y="450" text-anchor="middle" font-family="Arial, sans-serif" font-size="10" fill="#6B7280">Access Control</text>
  <text x="550" y="450" text-anchor="middle" font-family="Arial, sans-serif" font-size="10" fill="#6B7280">Data Lineage</text>
  <text x="750" y="450" text-anchor="middle" font-family="Arial, sans-serif" font-size="10" fill="#6B7280">Audit Logging</text>
  
  <!-- Orchestration Bar -->
  <rect x="30" y="490" width="845" height="70" rx="8" fill="#0f0f23" stroke="#3B82F6" stroke-width="2" stroke-dasharray="5,5"/>
  <text x="450" y="515" text-anchor="middle" font-family="Arial, sans-serif" font-size="12" font-weight="bold" fill="#3B82F6">⚙️ Orchestration &amp; Monitoring</text>
  <text x="150" y="540" text-anchor="middle" font-family="Arial, sans-serif" font-size="10" fill="#6B7280">Airflow / Dagster</text>
  <text x="350" y="540" text-anchor="middle" font-family="Arial, sans-serif" font-size="10" fill="#6B7280">Databricks Workflows</text>
  <text x="550" y="540" text-anchor="middle" font-family="Arial, sans-serif" font-size="10" fill="#6B7280">Prometheus</text>
  <text x="750" y="540" text-anchor="middle" font-family="Arial, sans-serif" font-size="10" fill="#6B7280">Grafana</text>
</svg>