<svg xmlns="http://www.w3.org/2000/svg" viewBox="0 0 900 500" width="900" height="500">
  <defs>
    <linearGradient id="dblockPipeBg" x1="0%" y1="0%" x2="100%" y2="100%">
      <stop offset="0%" style="stop-color:#1a1a2e;stop-opacity:1" />
      <stop offset="100%" style="stop-color:#0f0f23;stop-opacity:1" />
    </linearGradient>
  </defs>
  <rect width="900" height="500" fill="url(#dblockPipeBg)"/>
  <text x="450" y="35" text-anchor="middle" font-family="Arial, sans-serif" font-size="22" font-weight="bold" fill="#FFFFFF">DBLOCK Data Pipeline</text>
  <text x="450" y="55" text-anchor="middle" font-family="Arial, sans-serif" font-size="11" fill="#6B7280">Visual Data Workflow Automation</text>
  
  <!-- Coming Soon Badge -->
  <rect x="380" y="65" width="140" height="25" rx="12" fill="#8B5CF6"/>
  <text x="450" y="83" text-anchor="middle" font-family="Arial, sans-serif" font-size="11" font-weight="bold" fill="#FFFFFF">🚀 Coming Soon</text>
  
  <!-- Sources Section -->
  <rect x="30" y="110" width="160" height="350" rx="8" fill="#0f0f23" stroke="#3B82F6" stroke-width="2"/>
  <text x="110" y="140" text-anchor="middle" font-family="Arial, sans-serif" font-size="14" font-weight="bold" fill="#3B82F6">📥 Sources</text>
  <text x="110" y="160" text-anchor="middle" font-family="Arial, sans-serif" font-size="9" fill="#6B7280">100+ Connectors</text>
  
  <rect x="45" y="180" width="130" height="35" rx="4" fill="#3B82F6" opacity="0.3"/>
  <text x="110" y="202" text-anchor="middle" font-family="Arial, sans-serif" font-size="10" fill="#FFFFFF">Databases</text>
  <rect x="45" y="225" width="130" height="35" rx="4" fill="#3B82F6" opacity="0.3"/>
  <text x="110" y="247" text-anchor="middle" font-family="Arial, sans-serif" font-size="10" fill="#FFFFFF">APIs</text>
  <rect x="45" y="270" width="130" height="35" rx="4" fill="#3B82F6" opacity="0.3"/>
  <text x="110" y="292" text-anchor="middle" font-family="Arial, sans-serif" font-size="10" fill="#FFFFFF">Files (S3, GCS)</text>
  <rect x="45" y="315" width="130" height="35" rx="4" fill="#3B82F6" opacity="0.3"/>
  <text x="110" y="337" text-anchor="middle" font-family="Arial, sans-serif" font-size="10" fill="#FFFFFF">SaaS Apps</text>
  <rect x="45" y="360" width="130" height="35" rx="4" fill="#3B82F6" opacity="0.3"/>
  <text x="110" y="382" text-anchor="middle" font-family="Arial, sans-serif" font-size="10" fill="#FFFFFF">Streaming</text>
  <rect x="45" y="405" width="130" height="35" rx="4" fill="#3B82F6" opacity="0.3"/>
  <text x="110" y="427" text-anchor="middle" font-family="Arial, sans-serif" font-size="10" fill="#FFFFFF">Custom</text>
  
  <!-- Arrow -->
  <line x1="195" y1="285" x2="230" y2="285" stroke="#3B82F6" stroke-width="2"/>
  <polygon points="230,280 245,285 230,290" fill="#3B82F6"/>
  
  <!-- Transform Section -->
  <rect x="250" y="110" width="400" height="350" rx="8" fill="#0f0f23" stroke="#8B5CF6" stroke-width="2"/>
  <text x="450" y="140" text-anchor="middle" font-family="Arial, sans-serif" font-size="14" font-weight="bold" fill="#8B5CF6">🔄 Transform</text>
  <text x="450" y="160" text-anchor="middle" font-family="Arial, sans-serif" font-size="9" fill="#6B7280">Visual Editor + AI Assistant</text>
  
  <!-- Visual Pipeline Canvas -->
  <rect x="270" y="180" width="360" height="180" rx="6" fill="#16213e"/>
  <text x="450" y="205" text-anchor="middle" font-family="Arial, sans-serif" font-size="11" fill="#6B7280">Visual Pipeline Canvas</text>
  
  <!-- Pipeline nodes -->
  <rect x="290" y="230" width="70" height="40" rx="4" fill="#3B82F6" opacity="0.4"/>
  <text x="325" y="255" text-anchor="middle" font-family="Arial, sans-serif" font-size="9" fill="#FFFFFF">Extract</text>
  <line x1="360" y1="250" x2="390" y2="250" stroke="#8B5CF6" stroke-width="2"/>
  <polygon points="390,246 400,250 390,254" fill="#8B5CF6"/>
  
  <rect x="400" y="230" width="70" height="40" rx="4" fill="#8B5CF6" opacity="0.4"/>
  <text x="435" y="255" text-anchor="middle" font-family="Arial, sans-serif" font-size="9" fill="#FFFFFF">Filter</text>
  <line x1="470" y1="250" x2="500" y2="250" stroke="#8B5CF6" stroke-width="2"/>
  <polygon points="500,246 510,250 500,254" fill="#8B5CF6"/>
  
  <rect x="510" y="230" width="70" height="40" rx="4" fill="#8B5CF6" opacity="0.4"/>
  <text x="545" y="255" text-anchor="middle" font-family="Arial, sans-serif" font-size="9" fill="#FFFFFF">Join</text>
  
  <rect x="400" y="290" width="70" height="40" rx="4" fill="#8B5CF6" opacity="0.4"/>
  <text x="435" y="315" text-anchor="middle" font-family="Arial, sans-serif" font-size="9" fill="#FFFFFF">Aggregate</text>
  <line x1="435" y1="270" x2="435" y2="290" stroke="#8B5CF6" stroke-width="1" stroke-dasharray="3,3"/>
  
  <!-- AI Assistant -->
  <rect x="270" y="375" width="170" height="70" rx="6" fill="#8B5CF6" opacity="0.2" stroke="#8B5CF6" stroke-width="1"/>
  <text x="355" y="400" text-anchor="middle" font-family="Arial, sans-serif" font-size="11" font-weight="bold" fill="#8B5CF6">🤖 AI Assistant</text>
  <text x="355" y="420" text-anchor="middle" font-family="Arial, sans-serif" font-size="9" fill="#6B7280">Natural Language to SQL</text>
  <text x="355" y="435" text-anchor="middle" font-family="Arial, sans-serif" font-size="9" fill="#6B7280">Auto-suggestions</text>
  
  <!-- Real-time -->
  <rect x="460" y="375" width="170" height="70" rx="6" fill="#3B82F6" opacity="0.2" stroke="#3B82F6" stroke-width="1"/>
  <text x="545" y="400" text-anchor="middle" font-family="Arial, sans-serif" font-size="11" font-weight="bold" fill="#3B82F6">⚡ Real-Time</text>
  <text x="545" y="420" text-anchor="middle" font-family="Arial, sans-serif" font-size="9" fill="#6B7280">Stream Processing</text>
  <text x="545" y="435" text-anchor="middle" font-family="Arial, sans-serif" font-size="9" fill="#6B7280">Low Latency</text>
  
  <!-- Arrow -->
  <line x1="655" y1="285" x2="690" y2="285" stroke="#8B5CF6" stroke-width="2"/>
  <polygon points="690,280 705,285 690,290" fill="#8B5CF6"/>
  
  <!-- Destinations Section -->
  <rect x="710" y="110" width="160" height="350" rx="8" fill="#0f0f23" stroke="#3B82F6" stroke-width="2"/>
  <text x="790" y="140" text-anchor="middle" font-family="Arial, sans-serif" font-size="14" font-weight="bold" fill="#3B82F6">📤 Destinations</text>
  
  <rect x="725" y="170" width="130" height="35" rx="4" fill="#3B82F6" opacity="0.3"/>
  <text x="790" y="192" text-anchor="middle" font-family="Arial, sans-serif" font-size="10" fill="#FFFFFF">Data Warehouse</text>
  <rect x="725" y="215" width="130" height="35" rx="4" fill="#3B82F6" opacity="0.3"/>
  <text x="790" y="237" text-anchor="middle" font-family="Arial, sans-serif" font-size="10" fill="#FFFFFF">Data Lake</text>
  <rect x="725" y="260" width="130" height="35" rx="4" fill="#3B82F6" opacity="0.3"/>
  <text x="790" y="282" text-anchor="middle" font-family="Arial, sans-serif" font-size="10" fill="#FFFFFF">BI Tools</text>
  <rect x="725" y="305" width="130" height="35" rx="4" fill="#3B82F6" opacity="0.3"/>
  <text x="790" y="327" text-anchor="middle" font-family="Arial, sans-serif" font-size="10" fill="#FFFFFF">ML Platforms</text>
  <rect x="725" y="350" width="130" height="35" rx="4" fill="#3B82F6" opacity="0.3"/>
  <text x="790" y="372" text-anchor="middle" font-family="Arial, sans-serif" font-size="10" fill="#FFFFFF">APIs</text>
  <rect x="725" y="395" width="130" height="35" rx="4" fill="#3B82F6" opacity="0.3"/>
  <text x="790" y="417" text-anchor="middle" font-family="Arial, sans-serif" font-size="10" fill="#FFFFFF">Custom</text>
</svg>